<svg version="1.1" xmlns="http://www.w3.org/2000/svg" width="50px" height="50px" transform="rotate(0) scale(1, 1)">
<path d="M0 0 C9.9 0 19.8 0 30 0 C30 0.99 30 1.98 30 3 C29.36191406 3.12117188 28.72382813 3.24234375 28.06640625 3.3671875 C27.24011719 3.53476562 26.41382812 3.70234375 25.5625 3.875 C24.73878906 4.03742187 23.91507813 4.19984375 23.06640625 4.3671875 C22.38449219 4.57601563 21.70257812 4.78484375 21 5 C19.82530556 7.34938888 19.79965111 8.95073205 19.68359375 11.5703125 C19.64169922 12.46621094 19.59980469 13.36210937 19.55664062 14.28515625 C19.51732422 15.22230469 19.47800781 16.15945312 19.4375 17.125 C19.39431641 18.06988281 19.35113281 19.01476562 19.30664062 19.98828125 C19.20040928 22.32537092 19.09836824 24.6625683 19 27 C16.36 27 13.72 27 11 27 C11 27.99 11 28.98 11 30 C9.02 30 7.04 30 5 30 C5 29.01 5 28.02 5 27 C3.68 27 2.36 27 1 27 C-0.0394775 23.8815675 -0.11494838 21.72524414 -0.09765625 18.45703125 C-0.09515869 17.48999268 -0.09266113 16.5229541 -0.09008789 15.52661133 C-0.08098389 14.30095459 -0.07187988 13.07529785 -0.0625 11.8125 C-0.041875 7.914375 -0.02125 4.01625 0 0 Z M5 4 C5 5.32 5 6.64 5 8 C5.66 8 6.32 8 7 8 C7 6.68 7 5.36 7 4 C6.34 4 5.68 4 5 4 Z " fill="#ffffff" transform="translate(3,16)"/>
<path d="M0 0 C7.26 0 14.52 0 22 0 C22 8.25 22 16.5 22 25 C14.74 25 7.48 25 0 25 C0 16.75 0 8.5 0 0 Z M6 11 C5.66666667 14 5.66666667 14 6 17 C7.88500271 19.31563087 7.88500271 19.31563087 11 19.25 C14.11499729 19.31563087 14.11499729 19.31563087 16 17 C16.33333333 14 16.33333333 14 16 11 C14.11499729 8.68436913 14.11499729 8.68436913 11 8.75 C7.88500271 8.68436913 7.88500271 8.68436913 6 11 Z " fill="#ffffff" transform="translate(24,21)"/>
<path d="M0 0 C9.24 0 18.48 0 28 0 C29 2 29 2 29 10 C19.1 10 9.2 10 -1 10 C-1 2 -1 2 0 0 Z M4 4 C4 4.99 4 5.98 4 7 C4.66 7 5.32 7 6 7 C6 6.01 6 5.02 6 4 C5.34 4 4.68 4 4 4 Z " fill="#ffffff" transform="translate(4,4)"/>
<path d="M0 0 C3 0.125 3 0.125 4 1.125 C4.125 4.125 4.125 4.125 4 7.125 C3 8.125 3 8.125 0 8.25 C-3 8.125 -3 8.125 -4 7.125 C-4.125 4.125 -4.125 4.125 -4 1.125 C-3 0.125 -3 0.125 0 0 Z " fill="#ffffff" transform="translate(35,30.875)"/>
</svg>